Coordinates
version=1
nRows=6
nColumns=107
inDegrees=yes

Units are S.I. units (second, meters, Newtons, ...)
If the header above contains a line with 'inDegrees', this indicates whether rotational values are in degrees (yes) or radians (no).

endheader
time	sternoclavicular_r2	sternoclavicular_r3	unrotscap_r3	unrotscap_r2	acromioclavicular_r2	acromioclavicular_r3	acromioclavicular_r1	unrothum_r1	unrothum_r3	unrothum_r2	elv_angle	shoulder_elv	shoulder1_r2	shoulder_rot	elbow_flexion	pro_sup	deviation	flexion	proximal_distal_r1	proximal_distal_r3	cmc_flexion	cmc_abduction	mp_flexion	ip_flexion	mcp2_flexion	mcp2_abduction	pm2_flexion	md2_flexion	mcp3_flexion	mcp3_abduction	pm3_flexion	md3_flexion	mcp4_flexion	mcp4_abduction	pm4_flexion	md4_flexion	mcp5_flexion	mcp5_abduction	pm5_flexion	md5_flexion	bicpt_tx	bicpt_ty	bicpt_tz	bicpt2_tx	bicpt2_ty	bicpt2_tz	ptpt_tx	ptpt_ty	ptpt_tz	FCUpt_tx	FCUpt_ty	FCUpt_tz	EDCpt_tx	EDCpt_ty	EDCpt_tz	APLpt_tx	APLpt_ty	APLpt_tz	FPLpt_tx	FPLpt_ty	FPLpt_tz	FPLpt2_tx	FPLpt2_ty	FPLpt2_tz	PEC1pt2_tx	PEC1pt2_ty	PEC1pt2_tz	PEC1pt3_tx	PEC1pt3_ty	PEC1pt3_tz	PEC2pt2_tx	PEC2pt2_ty	PEC2pt2_tz	PEC2pt3_tx	PEC2pt3_ty	PEC2pt3_tz	PEC3pt2_tx	PEC3pt2_ty	PEC3pt2_tz	PEC3pt3_tx	PEC3pt3_ty	PEC3pt3_tz	DELT2pt2a_tx	DELT2pt2a_ty	DELT2pt2a_tz	DELT2pt2_tx	DELT2pt2_ty	DELT2pt2_tz	LAT1pt2_tx	LAT1pt2_ty	LAT1pt2_tz	LAT1pt3_tx	LAT1pt3_ty	LAT1pt3_tz	LAT2pt2_tx	LAT2pt2_ty	LAT2pt2_tz	LAT2pt3_tx	LAT2pt3_ty	LAT2pt3_tz	LAT3pt2_tx	LAT3pt2_ty	LAT3pt2_tz	LAT3pt3_tx	LAT3pt3_ty	LAT3pt3_tz
      1.46666667	     -0.30948826	      0.13108462	     -0.13108462	      0.30948826	     -0.06266508	      0.50643711	      0.22764000	     -0.22764000	     -0.50643711	      0.06266508	    103.67331709	     73.27409639	     -1.80944073	    -43.76164969	     30.82487369	     86.75924132	      0.37549222	     -0.17280589	      0.39419095	     -0.08640295	     28.40193527	    -17.65174181	      4.70902909	      0.04414578	     34.43801589	      2.22015074	     24.34041191	     -8.44446822	     29.68782572	     -5.50429507	     29.11745592	     21.16680496	     20.01380197	    -10.11483372	     30.15827273	     27.09610929	      9.27501758	    -13.52305060	     24.07621806	      5.11056253	      0.00091959	     -0.03113300	     -0.00486907	      0.01416077	     -0.01857373	     -0.00094562	      0.00113947	     -0.06904515	     -0.00703892	      0.01282531	     -0.18221194	      0.00010493	     -0.01041108	      0.00361977	     -0.00078175	      0.00015189	      0.00006076	      0.00030379	      0.00019442	      0.00058327	      0.00032809	     -0.00000615	     -0.00026190	     -0.00031428	      0.00240176	      0.00842653	      0.00586193	     -0.00785662	      0.01896987	     -0.01799288	      0.00240176	      0.00842653	      0.00586193	      0.00052920	      0.01758580	     -0.00924069	      0.00383689	      0.00468589	      0.01568983	      0.00000000	      0.00717678	      0.00000000	     -0.00687963	     -0.03179284	     -0.00591399	      0.02371215	     -0.00124904	     -0.01519282	     -0.00085487	      0.01432917	     -0.00586193	      0.00236106	      0.02067960	     -0.01709730	     -0.00573981	      0.01241590	     -0.00525131	     -0.01196811	      0.02621587	     -0.02935037	     -0.02247074	      0.01388138	     -0.00704246	     -0.01489908	      0.03028665	     -0.03667779
      1.50000000	     -0.30882524	      0.13080380	     -0.13080380	      0.30882524	     -0.06253083	      0.50535217	      0.22715232	     -0.22715232	     -0.50535217	      0.06253083	    103.63699303	     73.11712167	     -1.80880676	    -44.08481848	     31.26943158	     86.89836215	      0.37934786	     -0.17547803	      0.39704173	     -0.08773902	     26.84155601	    -18.55753054	      3.88631354	     -0.12894137	     35.38856429	      1.60653809	     24.93022935	     -8.17147524	     30.58849334	     -5.63554691	     29.66314742	     21.31442768	     20.65086726	    -10.13701568	     30.65601901	     27.17910741	      9.36135892	    -13.44473797	     24.28431392	      5.17463647	      0.00093430	     -0.03118395	     -0.00487728	      0.01414613	     -0.01869449	     -0.00092164	      0.00112919	     -0.06905180	     -0.00705013	      0.01284133	     -0.18220720	      0.00010884	     -0.01042778	      0.00362744	     -0.00078628	      0.00015375	      0.00006150	      0.00030750	      0.00019680	      0.00059041	      0.00033210	     -0.00000341	     -0.00027078	     -0.00032494	      0.00239662	      0.00840848	      0.00584937	     -0.00783979	      0.01892923	     -0.01795433	      0.00239662	      0.00840848	      0.00584937	      0.00052807	      0.01754812	     -0.00922089	      0.00383078	      0.00467585	      0.01567417	      0.00000000	      0.00714588	      0.00000000	     -0.00686489	     -0.03172473	     -0.00588831	      0.02379514	     -0.00126101	     -0.01539354	     -0.00085303	      0.01429847	     -0.00584937	      0.00235600	      0.02063529	     -0.01706068	     -0.00572751	      0.01238930	     -0.00524006	     -0.01194247	      0.02615970	     -0.02928749	     -0.02242260	      0.01385164	     -0.00702737	     -0.01486716	      0.03022177	     -0.03659921
      1.53333333	     -0.30830343	      0.13058278	     -0.13058278	      0.30830343	     -0.06242517	      0.50449829	      0.22676851	     -0.22676851	     -0.50449829	      0.06242517	    103.64913971	     72.99357690	     -1.80901875	    -44.43216549	     31.62056187	     86.95059582	      0.38366764	     -0.18156621	      0.40020608	     -0.09078310	     25.26333489	    -19.42522210	      3.20007295	     -0.20979122	     36.45420970	      1.01750724	     25.69683226	     -7.81442854	     31.68108324	     -5.78098619	     30.39496855	     21.53050129	     21.58343578	    -10.34027711	     31.43098447	     27.36291746	      9.86328500	    -13.44046369	     24.75412748	      5.25623491	      0.00094591	     -0.03122420	     -0.00488376	      0.01414065	     -0.01878988	     -0.00091264	      0.00112533	     -0.06905430	     -0.00705434	      0.01284734	     -0.18220542	      0.00011031	     -0.01043405	      0.00363031	     -0.00078798	      0.00015816	      0.00006327	      0.00031633	      0.00020245	      0.00060734	      0.00034163	     -0.00000030	     -0.00027701	     -0.00033241	      0.00239257	      0.00839427	      0.00583949	     -0.00782654	      0.01889724	     -0.01792399	      0.00239257	      0.00839427	      0.00583949	      0.00052718	      0.01751847	     -0.00920531	      0.00382596	      0.00466795	      0.01566180	      0.00000000	      0.00712161	      0.00000000	     -0.00685329	     -0.03167113	     -0.00586814	      0.02388305	     -0.00127388	     -0.01560994	     -0.00085159	      0.01427431	     -0.00583949	      0.00235202	      0.02060043	     -0.01703185	     -0.00571784	      0.01236837	     -0.00523121	     -0.01192229	      0.02611550	     -0.02923801	     -0.02238472	      0.01382824	     -0.00701550	     -0.01484204	      0.03017070	     -0.03653737
      1.56666667	     -0.30879970	      0.13079298	     -0.13079298	      0.30879970	     -0.06252566	      0.50531038	      0.22713354	     -0.22713354	     -0.50531038	      0.06252566	    103.60243867	     73.11107488	     -1.80820367	    -44.09383026	     31.32386019	     87.00263100	      0.39111467	     -0.23078832	      0.40559076	     -0.11539416	     24.06733700	    -19.85736051	      3.27196092	      0.29301180	     37.92406223	      1.20200504	     27.09684335	     -6.87384103	     33.40805883	     -5.65868790	     31.63302019	     21.91314301	     23.29464077	    -10.74301698	     33.33074352	     27.72520285	     11.75698124	    -13.57044407	     26.24457343	      5.23911928	      0.00093610	     -0.03119019	     -0.00487829	      0.01413512	     -0.01870928	     -0.00090364	      0.00112149	     -0.06905678	     -0.00705853	      0.01285333	     -0.18220364	      0.00011179	     -0.01044029	      0.00363319	     -0.00078968	      0.00019154	      0.00007661	      0.00038307	      0.00024517	      0.00073550	      0.00041372	      0.00000225	     -0.00027992	     -0.00033591	      0.00239642	      0.00840778	      0.00584889	     -0.00783914	      0.01892766	     -0.01795285	      0.00239642	      0.00840778	      0.00584889	      0.00052802	      0.01754667	     -0.00922013	      0.00383055	      0.00467546	      0.01567356	      0.00000000	      0.00714469	      0.00000000	     -0.00686432	     -0.03172211	     -0.00588732	      0.02379736	     -0.00126134	     -0.01539918	     -0.00085296	      0.01429729	     -0.00584889	      0.00235580	      0.02063359	     -0.01705927	     -0.00572704	      0.01238828	     -0.00523963	     -0.01194149	      0.02615754	     -0.02928507	     -0.02242075	      0.01385050	     -0.00702679	     -0.01486593	      0.03021927	     -0.03659619
      1.60000000	     -0.30841367	      0.13062947	     -0.13062947	      0.30841367	     -0.06244749	      0.50467868	      0.22684960	     -0.22684960	     -0.50467868	      0.06244749	    103.58087220	     73.01967783	     -1.80782726	    -44.29067081	     31.54638078	     87.12111124	      0.39388877	     -0.24118166	      0.40757275	     -0.12059083	     23.07988158	    -20.29641541	      2.78317669	      0.21922704	     38.41467878	      0.99214575	     27.44823841	     -6.67630915	     33.90741065	     -5.55816124	     31.85159253	     21.96748075	     23.57784002	    -10.63171706	     33.61165224	     27.75052345	     11.83036519	    -13.52478628	     26.39887745	      5.22336720	      0.00094346	     -0.03121570	     -0.00488239	      0.01412258	     -0.01876973	     -0.00088317	      0.00111273	     -0.06906244	     -0.00706807	      0.01286698	     -0.18219959	      0.00011515	     -0.01045451	      0.00363973	     -0.00079356	      0.00019807	      0.00007923	      0.00039614	      0.00025353	      0.00076059	      0.00042783	      0.00000446	     -0.00028110	     -0.00033732	      0.00239342	      0.00839727	      0.00584158	     -0.00782934	      0.01890400	     -0.01793040	      0.00239342	      0.00839727	      0.00584158	      0.00052736	      0.01752474	     -0.00920860	      0.00382698	      0.00466962	      0.01566441	      0.00000000	      0.00712673	      0.00000000	     -0.00685574	     -0.03168245	     -0.00587240	      0.02384729	     -0.00126864	     -0.01552176	     -0.00085190	      0.01427942	     -0.00584158	      0.00235286	      0.02060779	     -0.01703794	     -0.00571988	      0.01237279	     -0.00523308	     -0.01192656	      0.02612484	     -0.02924846	     -0.02239272	      0.01383318	     -0.00701801	     -0.01484735	      0.03018149	     -0.03655044
      1.63333333	     -0.30895124	      0.13085716	     -0.13085716	      0.30895124	     -0.06255634	      0.50555835	      0.22724500	     -0.22724500	     -0.50555835	      0.06255634	    104.19573471	     73.14695208	     -1.81855864	    -45.56986939	     30.34218356	     87.00494596	      0.37622401	     -0.39650991	      0.39473380	     -0.19825496	     23.60277561	    -20.04302492	      1.29798253	      0.86500863	     40.93717006	      1.70634379	     27.36889989	     -4.00794317	     37.26109189	     -5.23518079	     30.83357296	     21.51516549	     26.52501036	    -10.79227778	     34.50562101	     25.62517771	     14.60233866	    -13.64850302	     27.37591934	      5.11097825	      0.00090363	     -0.03107768	     -0.00486016	      0.01413487	     -0.01844260	     -0.00090324	      0.00112132	     -0.06905689	     -0.00705872	      0.01285360	     -0.18220356	      0.00011186	     -0.01044057	      0.00363332	     -0.00078976	      0.00027402	      0.00010961	      0.00054804	      0.00035075	      0.00105224	      0.00059188	      0.00000328	     -0.00028057	     -0.00033669	      0.00239760	      0.00841191	      0.00585176	     -0.00784299	      0.01893695	     -0.01796166	      0.00239760	      0.00841191	      0.00585176	      0.00052828	      0.01755528	     -0.00922465	      0.00383194	      0.00467775	      0.01567715	      0.00000000	      0.00715175	      0.00000000	     -0.00686769	     -0.03173768	     -0.00589318	      0.02415887	     -0.00131617	     -0.01632495	     -0.00085338	      0.01430430	     -0.00585176	      0.00235696	      0.02064371	     -0.01706764	     -0.00572985	      0.01239436	     -0.00524220	     -0.01194735	      0.02617038	     -0.02929944	     -0.02243175	      0.01385730	     -0.00703024	     -0.01487323	      0.03023410	     -0.03661414
